<?xml version="1.0" encoding="utf-8"?>
<!-- Generator: Adobe Illustrator 16.0.0, SVG Export Plug-In . SVG Version: 6.00 Build 0)  -->
<!DOCTYPE svg PUBLIC "-//W3C//DTD SVG 1.1//EN" "http://www.w3.org/Graphics/SVG/1.1/DTD/svg11.dtd">
<svg version="1.1" id="Capa_1" xmlns="http://www.w3.org/2000/svg" xmlns:xlink="http://www.w3.org/1999/xlink" x="0px" y="0px"
	 width="374.954px" height="387.273px" viewBox="0 0 374.954 387.273" enable-background="new 0 0 374.954 387.273"
	 xml:space="preserve">
<g>
	<g>
		<g>
			<path fill="#FFFFFF" d="M189.106,374.647c-99.593,0-180.613-80.665-180.613-179.819c0-99.173,81.021-179.863,180.613-179.863
				S369.72,95.655,369.72,194.828C369.72,293.982,288.699,374.647,189.106,374.647z M189.106,34.3
				c-88.875,0-161.209,71.991-161.209,160.527c0,88.492,72.334,160.5,161.209,160.5c88.883,0,161.227-72.008,161.227-160.5
				C350.333,106.292,277.989,34.3,189.106,34.3z"/>
		</g>
		<g>
			<path fill-rule="evenodd" clip-rule="evenodd" fill="#FFFFFF" d="M160.794,195.664v104.209c0,1.52,1.209,2.715,2.734,2.715
				h38.859c1.519,0,2.728-1.195,2.728-2.715V193.973h28.192c1.415,0,2.582-1.093,2.693-2.483l2.727-31.911
				c0.119-1.579-1.123-2.954-2.727-2.954h-30.886v-22.64c0-5.318,4.321-9.621,9.655-9.621h21.701c1.518,0,2.77-1.204,2.77-2.706
				V89.73c0-1.511-1.252-2.706-2.77-2.706h-36.699c-21.529,0-38.979,17.372-38.979,38.817v30.783h-19.447
				c-1.51,0-2.719,1.203-2.719,2.724v31.911c0,1.484,1.209,2.714,2.719,2.714h19.447V195.664z"/>
		</g>
	</g>
</g>
</svg>
