<?xml version="1.0" encoding="utf-8"?>
<!-- Generator: Adobe Illustrator 16.0.0, SVG Export Plug-In . SVG Version: 6.00 Build 0)  -->
<!DOCTYPE svg PUBLIC "-//W3C//DTD SVG 1.1//EN" "http://www.w3.org/Graphics/SVG/1.1/DTD/svg11.dtd">
<svg version="1.1" id="Capa_1" xmlns="http://www.w3.org/2000/svg" xmlns:xlink="http://www.w3.org/1999/xlink" x="0px" y="0px"
	 width="663.333px" height="164.667px" viewBox="0 0 663.333 164.667" enable-background="new 0 0 663.333 164.667"
	 xml:space="preserve">
<g>
	<path fill="#1D919B" d="M2.433,70.54V3.716h114.471v73.984l-54.149-46.3c0,0-3.646-3.342-7.014-3.342
		c-3.366,0-7.996,3.7-10.38,5.729C42.975,35.818,2.433,70.54,2.433,70.54z"/>
	<g>
		<path fill="#C0357D" d="M58.545,78.654c0,0-10.38-6.563-18.236-1.67c-7.857,4.894-10.523,11.218-2.665,19.926
			c7.855,8.712,12.625,12.293,16.133,14.321c3.504,2.029,8.696,2.986,14.026-1.551c5.333-4.531,9.96-7.399,14.449-14.083
			c4.49-6.68,4.77-12.527-3.226-17.896C71.03,72.332,58.545,78.654,58.545,78.654z"/>
		<g>
			<defs>
				<path id="SVGID_1_" d="M58.545,78.654c0,0-10.38-6.563-18.236-1.67c-7.857,4.894-10.523,11.218-2.665,19.926
					c7.855,8.712,12.625,12.293,16.133,14.321c3.504,2.029,8.696,2.986,14.026-1.551c5.333-4.531,9.96-7.399,14.449-14.083
					c4.49-6.68,4.77-12.527-3.226-17.896C71.03,72.332,58.545,78.654,58.545,78.654z"/>
			</defs>
			<clipPath id="SVGID_2_">
				<use xlink:href="#SVGID_1_"  overflow="visible"/>
			</clipPath>
			<g clip-path="url(#SVGID_2_)">
				<path fill="#841835" d="M36.15,99.83c0,0-1.302-11.511,11.97-11.511c13.273,0,17.696,0,23.943,0s13.013,6.644,13.013,12.839
					c0,6.2-22.902,15.275-22.902,15.275H43.436L36.15,99.83z"/>
				<path fill="#DC9931" d="M46.623,108.011c0,0-0.703-6.207,6.452-6.207c7.154,0,9.541,0,12.907,0s7.013,3.58,7.013,6.922
					c0,3.341-12.345,8.235-12.345,8.235H50.549L46.623,108.011z"/>
			</g>
		</g>
		<path fill="#FFFFFF" d="M53.075,95.596c0,6.208,4.019,14.681,6.079,14.681c2.057,0,6.829-7.637,6.829-14.681
			c0-7.036-4.35-14.076-6.454-14.076S53.075,89.394,53.075,95.596z"/>
	</g>
	<g>
		<path fill="#C0357D" d="M58.545,157.192c0,0-10.38,6.563-18.236,1.669c-7.857-4.894-10.523-11.218-2.665-19.927
			c7.855-8.708,12.625-12.289,16.133-14.317c3.504-2.029,8.696-2.982,14.026,1.552c5.333,4.534,9.96,7.395,14.449,14.079
			c4.49,6.684,4.77,12.531-3.226,17.901C71.03,163.52,58.545,157.192,58.545,157.192z"/>
		<g>
			<defs>
				<path id="SVGID_3_" d="M58.545,157.192c0,0-10.38,6.563-18.236,1.669c-7.857-4.894-10.523-11.218-2.665-19.927
					c7.855-8.708,12.625-12.289,16.133-14.317c3.504-2.029,8.696-2.982,14.026,1.552c5.333,4.534,9.96,7.395,14.449,14.079
					c4.49,6.684,4.77,12.531-3.226,17.901C71.03,163.52,58.545,157.192,58.545,157.192z"/>
			</defs>
			<clipPath id="SVGID_4_">
				<use xlink:href="#SVGID_3_"  overflow="visible"/>
			</clipPath>
			<g clip-path="url(#SVGID_4_)">
				<path fill="#841835" d="M36.15,136.014c0,0-1.302,11.511,11.97,11.511c13.273,0,17.696,0,23.943,0s13.013-6.639,13.013-12.839
					c0-6.196-22.902-15.275-22.902-15.275H43.436L36.15,136.014z"/>
				<path fill="#DC9931" d="M46.623,127.838c0,0-0.703,6.203,6.452,6.203c7.154,0,9.541,0,12.907,0s7.013-3.576,7.013-6.918
					s-12.345-8.235-12.345-8.235H50.549L46.623,127.838z"/>
			</g>
		</g>
		<path fill="#FFFFFF" d="M53.075,140.248c0-6.207,4.019-14.677,6.079-14.677c2.057,0,6.829,7.637,6.829,14.677
			c0,7.043-4.35,14.079-6.454,14.079S53.075,146.454,53.075,140.248z"/>
	</g>
	<g>
		<path fill="#C0357D" d="M12.789,118.729c0,0-7.715,8.834-1.964,15.517c5.752,6.677,13.188,8.947,23.428,2.264
			c10.24-6.68,14.449-10.737,16.833-13.724c2.385-2.979,3.508-7.396-1.824-11.929c-5.33-4.538-8.696-8.474-16.554-12.293
			c-7.853-3.818-14.729-4.056-21.041,2.744C5.354,108.11,12.789,118.729,12.789,118.729z"/>
		<g>
			<defs>
				<path id="SVGID_5_" d="M12.789,118.729c0,0-7.715,8.834-1.964,15.517c5.752,6.677,13.188,8.947,23.428,2.264
					c10.24-6.68,14.449-10.737,16.833-13.724c2.385-2.979,3.508-7.396-1.824-11.929c-5.33-4.538-8.696-8.474-16.554-12.293
					c-7.853-3.818-14.729-4.056-21.041,2.744C5.354,108.11,12.789,118.729,12.789,118.729z"/>
			</defs>
			<clipPath id="SVGID_6_">
				<use xlink:href="#SVGID_5_"  overflow="visible"/>
			</clipPath>
			<g clip-path="url(#SVGID_6_)">
				<path fill="#841835" d="M37.685,137.782c0,0-13.533,1.108-13.533-10.183c0-11.291,0-15.055,0-20.366
					c0-5.313,7.806-11.071,15.094-11.071c7.286,0,17.958,19.482,17.958,19.482v15.939L37.685,137.782z"/>
				<path fill="#DC9931" d="M47.3,128.876c0,0-7.294,0.594-7.294-5.492c0-6.085,0-8.114,0-10.979c0-2.862,4.207-5.964,8.134-5.964
					c3.928,0,9.682,10.502,9.682,10.502v8.587L47.3,128.876z"/>
			</g>
		</g>
		<path fill="#FFFFFF" d="M32.708,123.384c7.297,0,17.257-3.418,17.257-5.168c0-1.753-8.981-5.81-17.257-5.81
			c-8.275,0-16.554,3.697-16.554,5.491C16.155,119.683,25.417,123.384,32.708,123.384z"/>
	</g>
	<g>
		<path fill="#C0357D" d="M105.729,118.729c0,0,7.715,8.834,1.964,15.517c-5.753,6.677-13.188,8.947-23.428,2.264
			c-10.242-6.68-14.449-10.737-16.834-13.724c-2.385-2.979-3.506-7.396,1.824-11.929c5.331-4.538,8.696-8.474,16.554-12.293
			c7.854-3.818,14.729-4.056,21.042,2.744C113.164,108.11,105.729,118.729,105.729,118.729z"/>
		<g>
			<defs>
				<path id="SVGID_7_" d="M105.729,118.729c0,0,7.715,8.834,1.964,15.517c-5.753,6.677-13.188,8.947-23.428,2.264
					c-10.242-6.68-14.449-10.737-16.834-13.724c-2.385-2.979-3.506-7.396,1.824-11.929c5.331-4.538,8.696-8.474,16.554-12.293
					c7.854-3.818,14.729-4.056,21.042,2.744C113.164,108.11,105.729,118.729,105.729,118.729z"/>
			</defs>
			<clipPath id="SVGID_8_">
				<use xlink:href="#SVGID_7_"  overflow="visible"/>
			</clipPath>
			<g clip-path="url(#SVGID_8_)">
				<path fill="#841835" d="M80.832,137.782c0,0,13.533,1.108,13.533-10.183c0-11.291,0-15.055,0-20.366
					c0-5.313-7.808-11.071-15.092-11.071c-7.288,0-17.959,19.482-17.959,19.482v15.939L80.832,137.782z"/>
				<path fill="#DC9931" d="M71.22,128.876c0,0,7.294,0.594,7.294-5.492c0-6.085,0-8.114,0-10.979c0-2.862-4.209-5.964-8.138-5.964
					c-3.929,0-9.68,10.502-9.68,10.502v8.587L71.22,128.876z"/>
			</g>
		</g>
		<path fill="#FFFFFF" d="M85.809,123.384c-7.295,0-17.257-3.418-17.257-5.168c0-1.753,8.979-5.81,17.257-5.81
			c8.275,0,16.551,3.697,16.551,5.491C102.36,119.683,93.103,123.384,85.809,123.384z"/>
	</g>
	<g>
		<polygon fill="#FFFFFF" points="480.047,3.058 480.047,160.145 503.084,160.145 503.084,91.561 521.9,91.561 521.9,160.145 
			545.321,160.145 545.321,71.641 526.122,71.641 545.321,3.058 521.516,3.058 503.084,66.089 503.084,3.058 		"/>
		<rect x="558.759" y="3.058" fill="#FFFFFF" width="23.801" height="157.087"/>
		<polygon fill="#FFFFFF" points="596.001,3.058 660.121,3.058 660.121,53.679 635.931,53.679 635.931,23.958 619.807,23.958 
			619.807,47.801 660.121,108.872 660.121,160.145 596.001,160.145 596.001,109.852 618.656,109.852 618.656,139.573 
			636.695,139.573 636.695,112.464 596.001,47.801 		"/>
	</g>
	<polygon fill="#FFFFFF" points="394.184,3.94 457.648,3.94 457.648,54.043 433.705,54.043 433.705,24.629 417.749,24.629 
		417.749,48.225 457.648,108.671 457.648,159.418 394.184,159.418 394.184,109.639 416.605,109.639 416.605,139.056 
		434.468,139.056 434.468,112.226 394.184,48.225 	"/>
	<path fill="#FFFFFF" d="M319.226,3.716v157.221h24.191v-68.15h12.295v68.15H381.1V3.716H319.226z M356.903,73.216h-14.279V23.959
		h14.279V73.216z"/>
	<polygon fill="#FFFFFF" points="240.297,160.937 240.297,3.716 264.49,3.716 264.49,73.216 277.181,73.216 277.181,3.716 
		302.17,3.716 302.17,159.587 277.181,159.587 277.181,92.45 264.887,92.45 264.887,160.937 	"/>
	<polygon fill="#FFFFFF" points="165.73,160.937 165.73,3.716 227.204,3.716 227.204,53.987 203.806,53.987 203.806,24.295 
		189.922,24.295 189.922,140.357 201.822,140.357 201.822,112.017 227.204,112.017 227.204,160.937 	"/>
</g>
</svg>
