<?xml version="1.0" encoding="utf-8"?>
<!-- Generator: Adobe Illustrator 16.0.0, SVG Export Plug-In . SVG Version: 6.00 Build 0)  -->
<!DOCTYPE svg PUBLIC "-//W3C//DTD SVG 1.1//EN" "http://www.w3.org/Graphics/SVG/1.1/DTD/svg11.dtd">
<svg version="1.1" id="Capa_1" xmlns="http://www.w3.org/2000/svg" xmlns:xlink="http://www.w3.org/1999/xlink" x="0px" y="0px"
	 width="257.334px" height="172.667px" viewBox="0 0 257.334 172.667" enable-background="new 0 0 257.334 172.667"
	 xml:space="preserve">
<g>
	<path fill="#1D919B" d="M2.784,74.449v-70h102v77.5l-48.25-48.5c0,0-3.25-3.5-6.25-3.5s-7.125,3.875-9.25,6
		S2.784,74.449,2.784,74.449z"/>
	<g>
		<path fill="#C0357D" d="M52.784,82.949c0,0-9.25-6.875-16.25-1.75s-9.375,11.75-2.375,20.875s11.25,12.875,14.375,15
			s7.75,3.125,12.5-1.625s8.875-7.75,12.875-14.75s4.25-13.125-2.875-18.75S52.784,82.949,52.784,82.949z"/>
		<g>
			<defs>
				<path id="SVGID_1_" d="M52.784,82.949c0,0-9.25-6.875-16.25-1.75s-9.375,11.75-2.375,20.875s11.25,12.875,14.375,15
					s7.75,3.125,12.5-1.625s8.875-7.75,12.875-14.75s4.25-13.125-2.875-18.75S52.784,82.949,52.784,82.949z"/>
			</defs>
			<clipPath id="SVGID_2_">
				<use xlink:href="#SVGID_1_"  overflow="visible"/>
			</clipPath>
			<g clip-path="url(#SVGID_2_)">
				<path fill="#841835" d="M32.827,105.132c0,0-1.16-12.059,10.667-12.059c11.827,0,15.769,0,21.334,0
					c5.566,0,11.595,6.957,11.595,13.449c0,6.493-20.407,16.002-20.407,16.002H39.32L32.827,105.132z"/>
				<path fill="#DC9931" d="M42.159,113.699c0,0-0.625-6.5,5.75-6.5s8.5,0,11.5,0s6.25,3.75,6.25,7.25s-11,8.625-11,8.625h-9
					L42.159,113.699z"/>
			</g>
		</g>
		<path fill="#FFFFFF" d="M47.909,100.699c0,6.5,3.582,15.375,5.416,15.375s6.084-8,6.084-15.375s-3.875-14.75-5.75-14.75
			S47.909,94.199,47.909,100.699z"/>
	</g>
	<g>
		<path fill="#C0357D" d="M52.784,165.22c0,0-9.25,6.875-16.25,1.75s-9.375-11.75-2.375-20.875c7-9.125,11.25-12.875,14.375-15
			s7.75-3.125,12.5,1.625s8.875,7.75,12.875,14.75c4,7,4.25,13.125-2.875,18.75S52.784,165.22,52.784,165.22z"/>
		<g>
			<defs>
				<path id="SVGID_3_" d="M52.784,165.22c0,0-9.25,6.875-16.25,1.75s-9.375-11.75-2.375-20.875c7-9.125,11.25-12.875,14.375-15
					s7.75-3.125,12.5,1.625s8.875,7.75,12.875,14.75c4,7,4.25,13.125-2.875,18.75S52.784,165.22,52.784,165.22z"/>
			</defs>
			<clipPath id="SVGID_4_">
				<use xlink:href="#SVGID_3_"  overflow="visible"/>
			</clipPath>
			<g clip-path="url(#SVGID_4_)">
				<path fill="#841835" d="M32.827,143.036c0,0-1.16,12.059,10.667,12.059c11.827,0,15.769,0,21.334,0
					c5.566,0,11.595-6.957,11.595-13.449c0-6.494-20.407-16.002-20.407-16.002H39.32L32.827,143.036z"/>
				<path fill="#DC9931" d="M42.159,134.469c0,0-0.625,6.5,5.75,6.5s8.5,0,11.5,0s6.25-3.75,6.25-7.25s-11-8.625-11-8.625h-9
					L42.159,134.469z"/>
			</g>
		</g>
		<path fill="#FFFFFF" d="M47.909,147.47c0-6.5,3.582-15.375,5.416-15.375s6.084,8,6.084,15.375c0,7.375-3.875,14.75-5.75,14.75
			S47.909,153.97,47.909,147.47z"/>
	</g>
	<g>
		<path fill="#C0357D" d="M12.013,124.929c0,0-6.875,9.25-1.75,16.25c5.125,7,11.75,9.375,20.875,2.375
			c9.125-7,12.875-11.25,15-14.375s3.125-7.75-1.625-12.5s-7.75-8.875-14.75-12.875s-13.125-4.25-18.75,2.875
			S12.013,124.929,12.013,124.929z"/>
		<g>
			<defs>
				<path id="SVGID_5_" d="M12.013,124.929c0,0-6.875,9.25-1.75,16.25c5.125,7,11.75,9.375,20.875,2.375
					c9.125-7,12.875-11.25,15-14.375s3.125-7.75-1.625-12.5s-7.75-8.875-14.75-12.875s-13.125-4.25-18.75,2.875
					S12.013,124.929,12.013,124.929z"/>
			</defs>
			<clipPath id="SVGID_6_">
				<use xlink:href="#SVGID_5_"  overflow="visible"/>
			</clipPath>
			<g clip-path="url(#SVGID_6_)">
				<path fill="#841835" d="M34.196,144.886c0,0-12.059,1.16-12.059-10.667c0-11.827,0-15.769,0-21.334
					c0-5.566,6.957-11.596,13.449-11.596c6.493,0,16.002,20.407,16.002,20.407v16.696L34.196,144.886z"/>
				<path fill="#DC9931" d="M42.763,135.554c0,0-6.5,0.625-6.5-5.75s0-8.5,0-11.5s3.75-6.25,7.25-6.25s8.625,11,8.625,11v9
					L42.763,135.554z"/>
			</g>
		</g>
		<path fill="#FFFFFF" d="M29.763,129.804c6.5,0,15.375-3.582,15.375-5.416s-8-6.084-15.375-6.084s-14.75,3.875-14.75,5.75
			S23.263,129.804,29.763,129.804z"/>
	</g>
	<g>
		<path fill="#C0357D" d="M94.826,124.929c0,0,6.875,9.25,1.75,16.25c-5.125,7-11.75,9.375-20.875,2.375
			c-9.125-7-12.875-11.25-15-14.375s-3.125-7.75,1.625-12.5s7.75-8.875,14.75-12.875s13.125-4.25,18.75,2.875
			S94.826,124.929,94.826,124.929z"/>
		<g>
			<defs>
				<path id="SVGID_7_" d="M94.826,124.929c0,0,6.875,9.25,1.75,16.25c-5.125,7-11.75,9.375-20.875,2.375
					c-9.125-7-12.875-11.25-15-14.375s-3.125-7.75,1.625-12.5s7.75-8.875,14.75-12.875s13.125-4.25,18.75,2.875
					S94.826,124.929,94.826,124.929z"/>
			</defs>
			<clipPath id="SVGID_8_">
				<use xlink:href="#SVGID_7_"  overflow="visible"/>
			</clipPath>
			<g clip-path="url(#SVGID_8_)">
				<path fill="#841835" d="M72.643,144.886c0,0,12.059,1.16,12.059-10.667c0-11.827,0-15.769,0-21.334
					c0-5.566-6.957-11.596-13.449-11.596c-6.493,0-16.002,20.407-16.002,20.407v16.696L72.643,144.886z"/>
				<path fill="#DC9931" d="M64.076,135.554c0,0,6.5,0.625,6.5-5.75s0-8.5,0-11.5s-3.75-6.25-7.25-6.25s-8.625,11-8.625,11v9
					L64.076,135.554z"/>
			</g>
		</g>
		<path fill="#FFFFFF" d="M77.076,129.804c-6.5,0-15.375-3.582-15.375-5.416s8-6.084,15.375-6.084s14.75,3.875,14.75,5.75
			S83.576,129.804,77.076,129.804z"/>
	</g>
	<polygon fill="#FFFFFF" points="152.701,86.616 152.701,166.782 162.701,166.782 162.701,131.782 170.867,131.782 170.867,166.782 
		181.034,166.782 181.034,121.616 172.701,121.616 181.034,86.616 170.701,86.616 162.701,118.782 162.701,86.616 	"/>
	<rect x="186.867" y="86.616" fill="#FFFFFF" width="10.334" height="80.167"/>
	<polygon fill="#FFFFFF" points="203.034,86.616 230.867,86.616 230.867,112.449 220.367,112.449 220.367,97.282 213.367,97.282 
		213.367,109.449 230.867,140.616 230.867,166.782 203.034,166.782 203.034,141.116 212.867,141.116 212.867,156.282 
		220.701,156.282 220.701,142.448 203.034,109.449 	"/>
	<polygon fill="#FFFFFF" points="226.867,4.559 253.534,4.559 253.534,29.31 243.475,29.31 243.475,14.779 236.768,14.779 
		236.768,26.435 253.534,56.296 253.534,81.366 226.867,81.366 226.867,56.775 236.289,56.775 236.289,71.306 243.793,71.306 
		243.793,58.052 226.867,26.435 	"/>
	<path fill="#FFFFFF" d="M195.367,4.449v77.667h10.167V48.449h5.167v33.667h10.666V4.449H195.367z M211.201,38.782h-6V14.449h6
		V38.782z"/>
	<polygon fill="#FFFFFF" points="162.201,82.116 162.201,4.449 172.367,4.449 172.367,38.782 177.701,38.782 177.701,4.449 
		188.201,4.449 188.201,81.449 177.701,81.449 177.701,48.282 172.534,48.282 172.534,82.116 	"/>
	<polygon fill="#FFFFFF" points="130.867,82.116 130.867,4.449 156.701,4.449 156.701,29.282 146.867,29.282 146.867,14.615 
		141.034,14.615 141.034,71.949 146.034,71.949 146.034,57.949 156.701,57.949 156.701,82.116 	"/>
</g>
</svg>
