<?xml version="1.0" encoding="utf-8"?>
<!-- Generator: Adobe Illustrator 16.0.0, SVG Export Plug-In . SVG Version: 6.00 Build 0)  -->
<!DOCTYPE svg PUBLIC "-//W3C//DTD SVG 1.1//EN" "http://www.w3.org/Graphics/SVG/1.1/DTD/svg11.dtd">
<svg version="1.1" id="Capa_1" xmlns="http://www.w3.org/2000/svg" xmlns:xlink="http://www.w3.org/1999/xlink" x="0px" y="0px"
	 width="308.667px" height="294px" viewBox="0 0 308.667 294" enable-background="new 0 0 308.667 294" xml:space="preserve">
<g>
	<g>
		<g>
			<path fill="#FFFFFF" d="M154.339,291.556c-83.53,0-151.482-64.686-151.482-144.2c0-79.514,67.952-144.214,151.482-144.214
				c83.536,0,151.475,64.7,151.475,144.214C305.813,226.871,237.875,291.556,154.339,291.556z M154.339,18.641
				c-74.548,0-135.208,57.737-135.208,128.715c0,70.964,60.66,128.708,135.208,128.708c74.547,0,135.215-57.744,135.215-128.708
				C289.554,76.378,228.886,18.641,154.339,18.641z"/>
		</g>
		<g>
			<g>
				<path fill="#FFFFFF" d="M241.406,94.719c-5.595,2.409-11.772,3.881-17.842,4.84c2.884-0.452,7.119-5.408,8.824-7.407
					c2.574-3.04,4.731-6.524,5.939-10.29c0.13-0.294,0.267-0.67-0.035-0.89c-0.389-0.13-0.647-0.075-0.942,0.082
					c-6.761,3.45-13.758,5.936-21.201,7.709c-0.618,0.157-1.078,0-1.474-0.37c-0.59-0.657-1.173-1.267-1.834-1.801
					c-3.129-2.519-6.486-4.511-10.248-5.99c-4.998-1.909-10.42-2.738-15.742-2.402c-5.229,0.328-10.327,1.711-14.937,3.998
					c-4.639,2.307-8.788,5.518-12.054,9.386c-3.395,3.998-5.911,8.715-7.22,13.719c-1.208,4.833-1.107,9.585-0.367,14.472
					c0.108,0.809,0.044,0.932-0.74,0.809c-29.075-4.101-53.225-14.034-72.778-35.27c-0.855-0.932-1.316-0.932-2.028,0.062
					c-8.558,12.227-4.408,31.874,6.3,41.533c1.438,1.294,2.913,2.567,4.474,3.752c-0.583,0.103-7.71-0.63-14.046-3.752
					c-0.848-0.513-1.272-0.232-1.337,0.698c-0.101,1.321,0.036,2.54,0.223,3.964c1.633,12.397,10.658,23.872,23.006,28.328
					c1.467,0.589,3.1,1.103,4.667,1.355c-2.805,0.596-5.717,1.034-13.786,0.411c-1.014-0.179-1.366,0.301-1.014,1.205
					c6.077,15.738,19.18,20.428,28.975,23.076c1.315,0.22,2.618,0.22,3.927,0.527c-0.064,0.109-0.173,0.109-0.23,0.22
					c-3.236,4.724-14.505,8.235-19.762,9.987c-9.544,3.163-19.928,4.6-30.025,3.635c-1.632-0.219-1.956-0.205-2.38,0
					c-0.46,0.273-0.072,0.645,0.446,1.019c2.027,1.309,4.127,2.445,6.249,3.555c6.4,3.23,13.096,5.798,20.057,7.632
					c36.095,9.482,76.705,2.52,103.817-23.09c21.272-20.113,28.715-47.866,28.715-75.646c0-1.075,1.338-1.698,2.15-2.253
					c5.523-3.963,9.939-8.707,14.06-13.992c0.906-1.185,0.87-2.238,0.87-2.677c0-0.068,0-0.144,0-0.144
					C242.082,94.267,242.118,94.417,241.406,94.719z"/>
			</g>
			<g>
				<path fill-rule="evenodd" clip-rule="evenodd" fill="#FFFFFF" d="M117.942,215.972
					C132.915,215.972,118.669,215.972,117.942,215.972C119.913,215.972,117.856,215.972,117.942,215.972z"/>
			</g>
			<g>
				<path fill-rule="evenodd" clip-rule="evenodd" fill="#FFFFFF" d="M117.942,215.972
					C117.712,215.986,115.044,215.972,117.942,215.972C117.942,215.972,117.461,215.972,117.942,215.972z"/>
			</g>
			<g>
				<path fill-rule="evenodd" clip-rule="evenodd" fill="#FFFFFF" d="M123.89,216.123
					C123.89,215.828,126.996,216.123,123.89,216.123C123.89,215.972,124.285,216.123,123.89,216.123z"/>
			</g>
			<g>
				<path fill-rule="evenodd" clip-rule="evenodd" fill="#FFFFFF" d="M186.355,78.316c-0.194,0.157-0.482,0.157-0.748,0
					C185.873,78.316,186.161,78.316,186.355,78.316z"/>
			</g>
		</g>
	</g>
</g>
</svg>
