<?xml version="1.0" encoding="utf-8"?>
<!-- Generator: Adobe Illustrator 16.0.0, SVG Export Plug-In . SVG Version: 6.00 Build 0)  -->
<!DOCTYPE svg PUBLIC "-//W3C//DTD SVG 1.1//EN" "http://www.w3.org/Graphics/SVG/1.1/DTD/svg11.dtd">
<svg version="1.1" id="Capa_1" xmlns="http://www.w3.org/2000/svg" xmlns:xlink="http://www.w3.org/1999/xlink" x="0px" y="0px"
	 width="229.091px" height="214.546px" viewBox="0 0 229.091 214.546" enable-background="new 0 0 229.091 214.546"
	 xml:space="preserve">
<g>
	<g>
		<g>
			<path fill="#FFFFFF" d="M113.994,203.594c-57.467,0-104.208-43.89-104.208-97.84S56.527,7.905,113.994,7.905
				c57.463,0,104.204,43.898,104.204,97.849S171.457,203.594,113.994,203.594z M113.994,18.421
				c-51.287,0-93.022,39.175-93.022,87.333c0,48.148,41.735,87.328,93.022,87.328c51.278,0,93.009-39.18,93.009-87.328
				C207.003,57.596,165.272,18.421,113.994,18.421z"/>
		</g>
		<g>
			<g>
				<path fill="#FFFFFF" d="M176.399,90.904c0-13.869-11.978-25.124-26.765-25.124h-69.42c-14.787,0-26.77,11.255-26.77,25.124
					v30.554c0,13.874,11.982,25.124,26.77,25.124h69.42c14.787,0,26.765-11.25,26.765-25.124V90.904z M132.602,107.719
					l-27.689,14.26c-1.188,0.618-2.286-0.209-2.286-1.496V91.225c0-1.31,1.113-2.122,2.335-1.481l27.863,15.021
					C134.061,105.42,133.828,107.082,132.602,107.719z"/>
			</g>
		</g>
	</g>
</g>
</svg>
