<?xml version="1.0" encoding="utf-8"?>
<!-- Generator: Adobe Illustrator 16.0.0, SVG Export Plug-In . SVG Version: 6.00 Build 0)  -->
<!DOCTYPE svg PUBLIC "-//W3C//DTD SVG 1.1//EN" "http://www.w3.org/Graphics/SVG/1.1/DTD/svg11.dtd">
<svg version="1.1" id="Capa_1" xmlns="http://www.w3.org/2000/svg" xmlns:xlink="http://www.w3.org/1999/xlink" x="0px" y="0px"
	 width="136.967px" height="137.625px" viewBox="0 0 136.967 137.625" enable-background="new 0 0 136.967 137.625"
	 xml:space="preserve">
<circle fill="#316E37" cx="68.813" cy="68.813" r="68.813"/>
<g>
	<path fill-rule="evenodd" clip-rule="evenodd" fill="#FFFFFF" d="M27.92,76.927c0.4-1.537,0.657-3.122,1.224-4.604
		c2.873-7.513,11.499-12.175,19.898-10.834c7.642,1.22,13.417,6.374,15.052,13.431c2.16,9.318-4.845,18.845-14.902,20.271
		c-9.145,1.296-17.423-3.4-20.362-11.611c-0.439-1.225-0.614-2.533-0.909-3.802C27.92,78.828,27.92,77.877,27.92,76.927z
		 M59.895,78.334c-0.014-7.053-6.193-12.818-13.721-12.804c-7.538,0.013-13.7,5.795-13.684,12.84
		c0.015,7.053,6.193,12.817,13.722,12.804C53.748,91.16,59.909,85.379,59.895,78.334z"/>
	<path fill-rule="evenodd" clip-rule="evenodd" fill="#FFFFFF" d="M73.01,56.951c3.36,0,6.651,0,10.033,0c0-0.278,0-0.53,0-0.784
		c0.003-3.228-0.017-6.458,0.007-9.687c0.022-3.143,1.945-5.515,5.133-6.363c0.527-0.14,1.085-0.173,1.676-0.264
		c0,1.452,0,2.823,0,4.101c-0.584,0.33-1.211,0.562-1.648,0.97c-0.324,0.304-0.56,0.836-0.565,1.269
		c-0.043,3.56-0.025,7.119-0.025,10.786c0.495,0,0.966-0.019,1.435,0.003c1.793,0.084,3.633-0.029,5.367,0.315
		c3.954,0.784,6.794,4.176,6.879,7.969c0.054,2.397-0.004,4.797,0.039,7.194c0.006,0.352,0.197,0.786,0.459,1.037
		c4.028,3.83,5.212,9.428,2.965,14.202c-2.33,4.949-7.504,7.958-13.299,7.731c-5.996-0.234-11.294-4.404-12.641-9.949
		c-0.057-0.227-0.109-0.453-0.175-0.725c-3.209,0-6.372,0-9.613,0c0-1.425,0.051-2.797-0.012-4.163
		c-0.097-2.083-0.073-4.194-0.455-6.236c-0.968-5.183-3.771-9.432-8.17-12.694c-5.291-3.923-11.34-5.352-17.998-4.373
		c-3.504,0.515-6.708,1.798-9.588,3.756c-0.367,0.251-0.728,0.512-1.154,0.812c-0.966-1.091-1.91-2.16-2.897-3.279
		c3.14-2.441,6.667-4.074,10.549-5.056c0-4.553,0-9.056,0-13.614c-1.488,0-2.952,0-4.475,0c0-1.435,0-2.82,0-4.255
		c12.118,0,24.255,0,36.438,0c0,1.388,0,2.773,0,4.222c-1.234,0-2.439,0-3.736,0C69.373,45.61,71.185,51.258,73.01,56.951z
		 M68.249,56.978c-1.85-5.766-3.66-11.415-5.469-17.055c-6.304,0-12.56,0-18.82,0c0,4.304,0,8.565,0,12.828
		c0.125,0.012,0.198,0.031,0.272,0.026c6.041-0.368,11.616,0.962,16.734,3.988c0.183,0.108,0.418,0.201,0.628,0.203
		C63.774,56.983,65.955,56.978,68.249,56.978z M101.314,82.623c-0.001-4.709-4.127-8.555-9.158-8.543
		c-5,0.012-9.094,3.839-9.109,8.517c-0.018,4.709,4.091,8.571,9.12,8.578C97.198,91.181,101.318,87.33,101.314,82.623z
		 M96.749,70.553c0-1.666,0.009-3.207-0.002-4.749c-0.02-2.745-1.936-4.545-4.877-4.548c-8.195-0.009-16.39-0.003-24.586-0.001
		c-0.181,0-0.36,0.036-0.64,0.065c2.23,2.386,3.942,4.95,5.084,7.825c0.222,0.56,0.534,0.67,1.113,0.668
		C78.5,69.795,84.156,69.81,89.815,69.8C92.122,69.795,94.433,69.734,96.749,70.553z M81.965,74.111c-2.987,0-5.812,0-8.625,0
		c0.118,2.125,0.231,4.218,0.349,6.334c1.644,0,3.297,0,5.002,0C79.16,78.09,80.205,76.015,81.965,74.111z"/>
	<path fill-rule="evenodd" clip-rule="evenodd" fill="#FFFFFF" d="M53.04,78.318c0.037,3.471-3.04,6.39-6.791,6.441
		c-3.732,0.051-6.903-2.895-6.903-6.408c0.002-3.486,3.094-6.388,6.829-6.405C49.891,71.927,53.003,74.815,53.04,78.318z
		 M43.915,78.339c-0.009,1.162,1.021,2.138,2.263,2.145c1.243,0.008,2.284-0.956,2.294-2.119c0.007-1.162-1.022-2.137-2.265-2.145
		C44.963,76.212,43.922,77.176,43.915,78.339z"/>
	<path fill-rule="evenodd" clip-rule="evenodd" fill="#FFFFFF" d="M92.199,80.496c1.243,0.01,2.271,0.987,2.261,2.148
		c-0.012,1.162-1.056,2.125-2.297,2.114c-1.244-0.01-2.271-0.986-2.261-2.149C89.913,81.447,90.957,80.485,92.199,80.496z"/>
</g>
</svg>
