<?xml version="1.0" encoding="utf-8"?>
<!-- Generator: Adobe Illustrator 16.0.0, SVG Export Plug-In . SVG Version: 6.00 Build 0)  -->
<!DOCTYPE svg PUBLIC "-//W3C//DTD SVG 1.1//EN" "http://www.w3.org/Graphics/SVG/1.1/DTD/svg11.dtd">
<svg version="1.1" id="Capa_1" xmlns="http://www.w3.org/2000/svg" xmlns:xlink="http://www.w3.org/1999/xlink" x="0px" y="0px"
	 width="137.625px" height="137.625px" viewBox="0 0 137.625 137.625" enable-background="new 0 0 137.625 137.625"
	 xml:space="preserve">
<circle fill="#316E37" cx="68.813" cy="68.813" r="68.813"/>
<g>
	<path fill-rule="evenodd" clip-rule="evenodd" fill="#FFFFFF" d="M35.872,75.705c0.396-2.138,1.177-4.094,2.574-5.771
		c1.899-2.281,4.312-3.621,7.207-4.042c0.511-0.074,0.618-0.275,0.62-0.75c0.046-7.482,5.56-13.607,12.902-14.32
		c0.936-0.091,1.888-0.118,2.822,0.066c0.545,0.107,0.851-0.09,1.156-0.554c3.513-5.325,8.466-7.88,14.725-7.482
		c7.291,0.464,13.197,6.008,14.514,13.381c0.838,4.701-0.2,8.968-3.04,12.765c-0.314,0.42-0.36,0.754-0.208,1.243
		c2.608,8.419-2.965,17.311-11.559,18.486c-0.748,0.104-1.495,0.113-2.244,0.114c-9.285,0.003-18.572-0.071-27.856,0.029
		c-5.656,0.062-10.592-3.988-11.533-9.644c-0.015-0.085-0.053-0.166-0.08-0.248C35.872,77.886,35.872,76.794,35.872,75.705z
		 M61.503,84.352c0-0.007,0-0.014,0-0.021c4.952,0,9.907,0.093,14.855-0.024c5.356-0.126,9.7-5.48,8.989-10.876
		c-0.824-6.261-6.426-10.048-12.451-8.417c-1.512,0.41-2.638-0.265-2.967-1.838c-1.035-4.947-5.369-8.108-10.04-7.903
		c-5.576,0.244-9.936,5.507-9.091,11.127c0.091,0.603,0.23,1.208,0.231,1.813c0.006,1.502-1.245,2.377-2.962,2.124
		c-4.783-0.704-8.801,3.808-7.687,8.593c0.709,3.05,3.477,5.477,6.843,5.437C51.983,84.31,56.744,84.352,61.503,84.352z
		 M88.234,59.183c0.018-0.851-0.041-1.696-0.23-2.53c-1.346-6.053-6.492-9.893-12.621-9.301c-3.296,0.319-5.955,1.935-8.006,4.583
		c-0.258,0.335-0.313,0.555,0.12,0.812c2.759,1.637,4.749,3.968,5.958,6.977c0.174,0.433,0.432,0.543,0.84,0.49
		c0.873-0.113,1.743-0.105,2.625-0.019c3.664,0.358,6.729,1.925,9.198,4.681c0.405,0.454,0.516,0.305,0.733-0.115
		C87.762,63.015,88.29,61.176,88.234,59.183z"/>
	<path fill-rule="evenodd" clip-rule="evenodd" fill="#FFFFFF" d="M52.472,100.583c-1.126-0.49-1.575-1.391-1.56-2.6
		c0.016-1.459,0.005-2.92,0.002-4.379c0-0.461,0.044-0.914,0.224-1.342c0.38-0.91,1.364-1.479,2.282-1.326
		c1.066,0.18,1.874,0.996,1.898,2.074c0.043,1.85,0.037,3.703,0.001,5.553c-0.019,0.973-0.646,1.572-1.432,2.02
		C53.415,100.583,52.943,100.583,52.472,100.583z"/>
	<path fill-rule="evenodd" clip-rule="evenodd" fill="#FFFFFF" d="M71.001,100.583c-1.103-0.568-1.519-1.481-1.47-2.728
		c0.062-1.522,0.009-3.049,0.017-4.573c0.009-1.307,0.885-2.297,2.087-2.373c1.15-0.075,2.188,0.796,2.275,2.096
		c0.125,1.845,0.1,3.699,0.005,5.548c-0.049,1.001-0.653,1.618-1.499,2.03C71.944,100.583,71.474,100.583,71.001,100.583z"/>
	<path fill-rule="evenodd" clip-rule="evenodd" fill="#FFFFFF" d="M77.305,33.54c1.129,0.493,1.588,1.399,1.551,2.607
		c-0.024,0.783,0.072,1.57-0.077,2.348c-0.224,1.165-1.194,1.962-2.28,1.874c-1.154-0.092-2.018-1.007-2.055-2.201
		c-0.02-0.631,0.031-1.268-0.014-1.896c-0.093-1.245,0.357-2.163,1.461-2.732C76.362,33.54,76.832,33.54,77.305,33.54z"/>
	<path fill-rule="evenodd" clip-rule="evenodd" fill="#FFFFFF" d="M101.754,59.729c-0.442,1.136-1.287,1.625-2.461,1.604
		c-0.664-0.012-1.326,0.012-1.99-0.007c-1.26-0.036-2.192-0.925-2.263-2.134c-0.067-1.168,0.815-2.223,2.054-2.328
		c0.893-0.075,1.799-0.065,2.693-0.004c0.967,0.067,1.597,0.666,1.967,1.559C101.754,58.855,101.754,59.292,101.754,59.729z"/>
	<path fill-rule="evenodd" clip-rule="evenodd" fill="#FFFFFF" d="M91.213,46.512c-0.916-0.061-1.587-0.472-1.983-1.281
		c-0.388-0.793-0.318-1.581,0.216-2.274c0.605-0.79,1.309-1.502,2.07-2.133c0.949-0.782,2.239-0.653,3.012,0.237
		c0.768,0.886,0.752,2.135-0.068,3.023c-0.557,0.603-1.145,1.177-1.722,1.759C92.309,46.277,91.776,46.479,91.213,46.512z"/>
	<path fill-rule="evenodd" clip-rule="evenodd" fill="#FFFFFF" d="M64.235,44.031c-0.006,1.124-0.384,1.829-1.218,2.246
		c-0.837,0.418-1.653,0.314-2.336-0.288c-0.708-0.625-1.376-1.309-1.99-2.03c-0.726-0.854-0.65-2.128,0.089-2.921
		c0.787-0.843,1.997-0.981,2.903-0.245c0.8,0.651,1.511,1.412,2.172,2.211C64.139,43.346,64.256,43.769,64.235,44.031z"/>
	<path fill-rule="evenodd" clip-rule="evenodd" fill="#FFFFFF" d="M41.639,93.75c-0.005-1.565,0.525-2.452,1.64-2.749
		c1.258-0.337,2.456,0.439,2.718,1.791c0.129,0.663,0.12,1.348,0.013,2.012c-0.203,1.244-1.127,1.962-2.368,1.895
		c-1.086-0.061-1.922-0.961-2.001-2.166C41.625,94.273,41.639,94.011,41.639,93.75z"/>
	<path fill-rule="evenodd" clip-rule="evenodd" fill="#FFFFFF" d="M83.264,93.833c-0.018,0.324-0.006,0.655-0.062,0.974
		c-0.212,1.216-1.103,1.937-2.306,1.894c-1.082-0.039-1.938-0.863-2.049-2.038c-0.055-0.56-0.053-1.132-0.004-1.692
		c0.102-1.17,1.08-2.063,2.195-2.059c1.121,0.004,2.039,0.865,2.186,2.074c0.033,0.278,0.005,0.564,0.005,0.846
		C83.24,93.833,83.253,93.833,83.264,93.833z"/>
	<path fill-rule="evenodd" clip-rule="evenodd" fill="#FFFFFF" d="M60.275,93.83c0-0.262-0.009-0.523,0.001-0.785
		c0.049-1.206,1.003-2.145,2.169-2.141c1.166,0.006,2.12,0.949,2.16,2.152c0.018,0.523,0.02,1.048-0.001,1.57
		c-0.046,1.174-0.976,2.068-2.14,2.076c-1.211,0.008-2.138-0.875-2.188-2.088C60.266,94.353,60.275,94.091,60.275,93.83z"/>
</g>
</svg>
