<?xml version="1.0" encoding="utf-8"?>
<!-- Generator: Adobe Illustrator 16.0.0, SVG Export Plug-In . SVG Version: 6.00 Build 0)  -->
<!DOCTYPE svg PUBLIC "-//W3C//DTD SVG 1.1//EN" "http://www.w3.org/Graphics/SVG/1.1/DTD/svg11.dtd">
<svg version="1.1" id="Capa_1" xmlns="http://www.w3.org/2000/svg" xmlns:xlink="http://www.w3.org/1999/xlink" x="0px" y="0px"
	 width="137.626px" height="137.625px" viewBox="0 0 137.626 137.625" enable-background="new 0 0 137.626 137.625"
	 xml:space="preserve">
<circle fill="#316E37" cx="68.813" cy="68.813" r="68.813"/>
<g>
	<path fill="#FFFFFF" d="M62.882,96.429c-9.57,0-19.14-0.004-28.71,0.013c-0.502,0.001-0.604-0.087-0.601-0.528
		c0.026-3.523,0.015-7.047,0.015-10.57c0.86-3.764,3.272-6.395,7.37-7.778c0.501-0.169,0.37-0.391,0.196-0.692
		c-2.129-3.686-0.916-7.849,2.967-10.156c0.415-0.247,0.644-0.535,0.72-0.979c0.265-1.553,0.722-3.066,1.354-4.535
		c1.852-4.299,4.83-7.87,8.99-10.662c0.415-0.278,0.638-0.611,0.763-1.048c0.954-3.341,3.263-5.649,6.912-6.892
		c0.589-0.2,0.653-0.381,0.371-0.877c-1.433-2.526-1.379-5.055,0.222-7.508c1.371-2.1,3.52-3.273,6.17-3.786
		c0.976,0,1.953,0,2.929,0c0.33,0.078,0.661,0.151,0.987,0.234c5.299,1.333,7.968,6.661,5.488,10.954
		c-0.425,0.736-0.419,0.723,0.429,1.018c2.862,0.994,5.063,2.69,6.112,5.226c0.674,1.63,1.675,2.829,3.145,3.976
		c4.739,3.699,7.58,8.389,8.619,13.901c0.085,0.441,0.307,0.731,0.722,0.979c3.882,2.308,5.102,6.475,2.962,10.154
		c-0.25,0.428-0.151,0.574,0.339,0.738c1.687,0.564,3.16,1.415,4.386,2.598c1.527,1.471,2.42,3.201,2.845,5.137
		c0,3.545-0.008,7.09,0.014,10.635c0.003,0.385-0.089,0.463-0.525,0.461c-9.594-0.013-19.188-0.01-28.783-0.01
		c-1.114-0.471-1.615-1.242-1.528-2.334c0.041-0.533-0.001-1.071,0.006-1.607c0.008-0.436-0.229-0.567-0.694-0.488
		c-3.99,0.678-7.981,0.678-11.973,0c-0.463-0.079-0.701,0.053-0.694,0.488c0.008,0.536-0.034,1.074,0.007,1.607
		C64.497,95.187,63.997,95.958,62.882,96.429z M55.648,55.702c-0.269-0.038-0.344,0.094-0.437,0.182
		c-2.631,2.508-4.476,5.399-5.452,8.708c-0.229,0.781-0.216,0.784,0.717,0.95c6.078,1.08,9.065,6.464,6.286,11.353
		c-0.225,0.395-0.143,0.534,0.311,0.703c4.749,1.76,7.297,4.859,7.319,9.454c0.004,0.501,0.206,0.729,0.755,0.839
		c3.941,0.785,7.874,0.785,11.818,0.014c0.63-0.123,0.836-0.386,0.807-0.932c-0.202-4.017,2.766-7.884,7.27-9.359
		c0.558-0.182,0.582-0.367,0.322-0.789c-0.929-1.503-1.237-3.125-0.909-4.801c0.672-3.434,3.337-5.784,7.254-6.484
		c0.92-0.165,0.931-0.167,0.697-0.961c-0.78-2.655-2.144-5.06-4.043-7.231c-0.524-0.601-1.069-1.189-1.725-1.731
		c-0.065,0.121-0.104,0.157-0.104,0.195c-0.008,1.073-0.01,2.146-0.014,3.22c-0.006,1.682-0.8,2.386-2.707,2.387
		c-8.492,0.001-16.983,0.001-25.476,0c-1.897,0-2.689-0.709-2.69-2.402C55.646,57.907,55.648,56.798,55.648,55.702z M71.029,57.45
		c3.391,0,6.781-0.005,10.174,0.005c0.525,0.002,0.836-0.1,0.814-0.64c-0.073-1.95,0.097-3.903-0.123-5.854
		c-0.278-2.444-2.791-4.718-5.566-4.892c-3.481-0.218-6.969-0.218-10.449-0.001c-2.832,0.175-5.321,2.431-5.606,4.924
		c-0.216,1.887-0.037,3.776-0.129,5.662c-0.029,0.631,0.232,0.813,0.932,0.808C64.393,57.436,67.711,57.45,71.029,57.45z
		 M48.955,92.512c3.365,0,6.732-0.004,10.1,0.004c0.498,0.001,0.865-0.05,0.846-0.612c-0.071-1.971,0.096-3.945-0.127-5.918
		c-0.271-2.396-2.804-4.682-5.534-4.853c-3.506-0.219-7.017-0.218-10.521-0.001c-2.774,0.172-5.284,2.449-5.563,4.896
		c-0.215,1.887-0.069,3.773-0.114,5.661c-0.021,0.8,0.021,0.821,0.959,0.821C42.318,92.514,45.636,92.512,48.955,92.512z
		 M93.202,92.512c3.368,0,6.734-0.005,10.1,0.004c0.511,0.002,0.854-0.069,0.835-0.622c-0.072-1.973,0.096-3.946-0.13-5.92
		c-0.269-2.363-2.794-4.665-5.471-4.837c-3.506-0.226-7.017-0.224-10.522-0.007c-2.846,0.176-5.34,2.426-5.621,4.908
		c-0.216,1.888-0.041,3.776-0.129,5.662c-0.029,0.613,0.194,0.829,0.913,0.824C86.518,92.497,89.86,92.512,93.202,92.512z
		 M75.38,38.139c-0.032-2.085-1.991-3.785-4.323-3.756c-2.37,0.029-4.302,1.753-4.269,3.807c0.034,2.084,1.992,3.784,4.325,3.755
		C73.481,41.916,75.413,40.192,75.38,38.139z M53.263,73.236c0.013-2.063-1.932-3.78-4.288-3.79
		c-2.342-0.011-4.293,1.699-4.304,3.772c-0.012,2.063,1.93,3.779,4.285,3.789C51.3,77.017,53.251,75.308,53.263,73.236z
		 M97.498,73.236c0.013-2.063-1.931-3.78-4.285-3.79c-2.344-0.011-4.294,1.699-4.307,3.772c-0.012,2.063,1.932,3.779,4.285,3.789
		C95.537,77.017,97.487,75.308,97.498,73.236z"/>
	<path fill="#FFFFFF" d="M64.511,69.181c0.682-0.01,1.225,0.249,1.691,0.658c0.676,0.59,1.383,1.154,2.011,1.78
		c0.481,0.479,0.796,0.506,1.328,0.021c2.072-1.878,4.199-3.711,6.301-5.565c0.423-0.373,0.884-0.675,1.496-0.746
		c0.983-0.113,1.883,0.285,2.332,1.028c0.465,0.769,0.354,1.652-0.371,2.324c-0.974,0.901-1.99,1.77-2.99,2.65
		c-1.844,1.624-3.687,3.251-5.536,4.87c-1.274,1.115-2.487,1.119-3.755,0.013c-1.385-1.21-2.77-2.418-4.131-3.649
		c-0.695-0.628-0.852-1.398-0.456-2.202C62.814,69.582,63.539,69.197,64.511,69.181z"/>
</g>
</svg>
