<?xml version="1.0" encoding="utf-8"?>
<!-- Generator: Adobe Illustrator 16.0.0, SVG Export Plug-In . SVG Version: 6.00 Build 0)  -->
<!DOCTYPE svg PUBLIC "-//W3C//DTD SVG 1.1//EN" "http://www.w3.org/Graphics/SVG/1.1/DTD/svg11.dtd">
<svg version="1.1" id="Capa_1" xmlns="http://www.w3.org/2000/svg" xmlns:xlink="http://www.w3.org/1999/xlink" x="0px" y="0px"
	 width="137.203px" height="137.625px" viewBox="0 0 137.203 137.625" enable-background="new 0 0 137.203 137.625"
	 xml:space="preserve">
<circle fill="#316E37" cx="68.39" cy="68.813" r="68.813"/>
<g>
	<path fill-rule="evenodd" clip-rule="evenodd" fill="#FFFFFF" d="M87.327,99.013c-1.184,0-2.366,0-3.549,0
		c-0.074-0.021-0.146-0.053-0.221-0.063c-2.902-0.379-5.506-1.512-7.834-3.309c-0.421-0.325-0.836-0.463-1.361-0.463
		c-9.644,0.014-19.288,0.002-28.932,0.021c-0.968,0.002-1.658-0.333-2.075-1.23c0-18.164,0.001-36.328-0.01-54.492
		c0-0.41,0.066-0.516,0.492-0.515c12.855,0.015,25.711,0.012,38.566,0.012c0.876,0.428,1.204,1.134,1.201,2.126
		c-0.021,7.851-0.006,15.701-0.023,23.552c-0.001,0.574,0.15,0.719,0.709,0.692c1.064-0.053,2.131-0.081,3.197,0.075
		c5.82,0.85,10.084,3.956,12.836,9.259c0.904,1.744,1.357,3.637,1.662,5.572c0,1.251,0,2.502,0,3.752
		c-0.029,0.153-0.063,0.305-0.088,0.459c-1.003,6.018-4.189,10.367-9.535,13.06C90.772,98.324,89.063,98.72,87.327,99.013z
		 M46.835,67.054c0,7.895,0,15.791,0,23.686c0,0.834,0.003,0.84,0.777,0.84c7.844,0.001,15.688,0.001,23.532-0.002
		c0.183,0,0.425,0.09,0.538-0.09c0.141-0.224-0.1-0.392-0.201-0.563c-1.957-3.309-2.793-6.889-2.287-10.722
		c0.861-6.524,4.289-11.103,10.207-13.692c0.503-0.22,0.68-0.478,0.68-1.035c-0.018-7.368-0.012-14.735-0.012-22.103
		c0-0.833-0.003-0.835-0.841-0.835c-10.516,0-21.032,0-31.547,0c-0.845,0-0.846,0.002-0.846,0.888
		C46.835,51.303,46.835,59.178,46.835,67.054z M85.491,68.926c-7.164,0.12-12.854,5.816-12.863,13.185
		c-0.009,7.355,5.66,13.311,12.871,13.307c7.254-0.003,12.881-5.998,12.861-13.315C98.341,74.687,92.624,69.038,85.491,68.926z"/>
	<path fill-rule="evenodd" clip-rule="evenodd" fill="#FFFFFF" d="M63.525,46.553c3.566,0,7.132-0.001,10.699,0
		c1.383,0,2.039,0.667,2.04,2.072c0.003,2.949,0.003,5.897,0,8.847c-0.002,1.402-0.659,2.068-2.042,2.069
		c-7.152,0.001-14.304,0.001-21.457,0c-1.341,0-2.008-0.679-2.01-2.042c-0.003-2.969-0.003-5.938,0-8.905
		c0.001-1.363,0.668-2.039,2.013-2.04C56.354,46.551,59.939,46.553,63.525,46.553z M63.573,50.161c-2.878,0-5.757,0.009-8.636-0.008
		c-0.494-0.002-0.675,0.163-0.667,0.676c0.024,1.483,0.021,2.968,0.002,4.451c-0.006,0.472,0.141,0.661,0.623,0.661
		c5.738-0.012,11.477-0.011,17.216,0c0.468,0,0.645-0.159,0.637-0.646c-0.02-1.444-0.006-2.89-0.007-4.334
		c-0.001-0.784-0.013-0.798-0.759-0.798C69.178,50.16,66.376,50.161,63.573,50.161z"/>
	<path fill-rule="evenodd" clip-rule="evenodd" fill="#FFFFFF" d="M54.358,63.442c0.342,0,0.686-0.016,1.027,0.003
		c0.927,0.052,1.626,0.812,1.638,1.763c0.013,0.984-0.683,1.786-1.63,1.827c-0.702,0.031-1.409,0.032-2.11-0.001
		c-0.921-0.045-1.608-0.832-1.61-1.788c-0.001-0.956,0.684-1.736,1.601-1.798c0.36-0.024,0.723-0.004,1.084-0.004
		C54.358,63.443,54.358,63.443,54.358,63.442z"/>
	<path fill-rule="evenodd" clip-rule="evenodd" fill="#FFFFFF" d="M63.51,63.444c0.361,0,0.724-0.021,1.083,0.005
		c0.895,0.063,1.576,0.823,1.591,1.749c0.016,0.962-0.651,1.776-1.564,1.831c-0.739,0.043-1.484,0.043-2.224,0
		c-0.913-0.054-1.578-0.869-1.562-1.832c0.016-0.925,0.698-1.686,1.592-1.749C62.786,63.423,63.148,63.444,63.51,63.444z"/>
	<path fill-rule="evenodd" clip-rule="evenodd" fill="#FFFFFF" d="M72.671,63.444c0.361,0,0.725-0.021,1.084,0.005
		c0.895,0.063,1.574,0.823,1.59,1.749c0.016,0.962-0.65,1.776-1.563,1.831c-0.739,0.043-1.484,0.043-2.224,0
		c-0.913-0.054-1.578-0.869-1.563-1.832c0.016-0.925,0.697-1.686,1.592-1.749C71.946,63.423,72.31,63.444,72.671,63.444z"/>
	<path fill-rule="evenodd" clip-rule="evenodd" fill="#FFFFFF" d="M54.402,72.822c0.324,0,0.647-0.013,0.97,0.004
		c0.952,0.05,1.656,0.826,1.652,1.808c-0.005,0.979-0.714,1.751-1.673,1.786c-0.665,0.023-1.332,0.022-1.997,0
		c-0.961-0.033-1.673-0.802-1.68-1.779c-0.007-1.006,0.711-1.778,1.702-1.816C53.717,72.81,54.06,72.822,54.402,72.822z"/>
	<path fill-rule="evenodd" clip-rule="evenodd" fill="#FFFFFF" d="M63.519,72.824c0.342,0,0.686-0.017,1.027,0.002
		c0.927,0.053,1.626,0.813,1.639,1.764c0.012,0.983-0.683,1.785-1.63,1.826c-0.703,0.031-1.409,0.033-2.111-0.001
		c-0.921-0.044-1.607-0.832-1.609-1.788c-0.002-0.955,0.683-1.735,1.601-1.798c0.359-0.024,0.722-0.003,1.083-0.003V72.824z"/>
	<path fill-rule="evenodd" clip-rule="evenodd" fill="#FFFFFF" d="M54.299,85.805c-0.304,0-0.608,0.01-0.913-0.001
		c-0.993-0.037-1.715-0.803-1.713-1.807c0.002-1.004,0.727-1.768,1.726-1.793c0.646-0.017,1.293-0.02,1.94,0.002
		c0.963,0.032,1.676,0.797,1.685,1.773c0.009,1.008-0.708,1.783-1.697,1.822C54.984,85.816,54.642,85.804,54.299,85.805z"/>
	<path fill-rule="evenodd" clip-rule="evenodd" fill="#FFFFFF" d="M63.502,82.207c0.361,0,0.724-0.021,1.084,0.004
		c0.917,0.063,1.601,0.844,1.599,1.801c-0.004,0.955-0.691,1.74-1.613,1.784c-0.703,0.034-1.408,0.032-2.11,0.001
		c-0.946-0.042-1.641-0.846-1.627-1.83c0.013-0.95,0.713-1.708,1.641-1.76c0.341-0.018,0.684-0.002,1.026-0.002
		C63.502,82.205,63.502,82.205,63.502,82.207z"/>
	<path fill-rule="evenodd" clip-rule="evenodd" fill="#FFFFFF" d="M85.47,72.348c0.856-0.009,1.528,0.499,1.746,1.392
		c0.08,0.328,0.228,0.503,0.521,0.617c0.522,0.203,0.993,0.5,1.399,0.896c0.74,0.722,0.834,1.765,0.232,2.536
		c-0.594,0.762-1.643,0.914-2.461,0.291c-0.537-0.406-1.085-0.536-1.718-0.36c-0.384,0.106-0.638,0.332-0.698,0.755
		c-0.058,0.4,0.168,0.609,0.471,0.785c0.868,0.502,1.822,0.795,2.735,1.191c1.636,0.708,2.647,1.937,2.887,3.771
		c0.28,2.146-0.786,4.259-2.679,5.265c-0.401,0.214-0.648,0.419-0.687,0.944c-0.06,0.802-0.774,1.412-1.552,1.471
		c-0.889,0.066-1.66-0.426-1.857-1.304c-0.107-0.481-0.325-0.679-0.763-0.79c-0.577-0.146-1.093-0.459-1.591-0.785
		c-0.917-0.602-1.196-1.645-0.688-2.535c0.504-0.885,1.575-1.182,2.49-0.589c0.741,0.479,1.516,0.595,2.351,0.536
		c0.737-0.053,1.334-0.615,1.439-1.355c0.09-0.648-0.193-1.061-0.99-1.363c-1.002-0.383-1.994-0.783-2.932-1.316
		c-1.479-0.842-2.312-2.08-2.244-3.848c0.066-1.75,0.82-3.109,2.344-3.959c0.336-0.188,0.486-0.403,0.547-0.8
		C83.899,72.939,84.628,72.357,85.47,72.348z"/>
</g>
</svg>
