<?xml version="1.0" encoding="utf-8"?>
<!-- Generator: Adobe Illustrator 16.0.0, SVG Export Plug-In . SVG Version: 6.00 Build 0)  -->
<!DOCTYPE svg PUBLIC "-//W3C//DTD SVG 1.1//EN" "http://www.w3.org/Graphics/SVG/1.1/DTD/svg11.dtd">
<svg version="1.1" id="Capa_1" xmlns="http://www.w3.org/2000/svg" xmlns:xlink="http://www.w3.org/1999/xlink" x="0px" y="0px"
	 width="139.808px" height="137.625px" viewBox="0 0 139.808 137.625" enable-background="new 0 0 139.808 137.625"
	 xml:space="preserve">
<circle fill="#316E37" cx="70.995" cy="68.813" r="68.813"/>
<path fill-rule="evenodd" clip-rule="evenodd" fill="#FFFFFF" d="M104.868,72.464c-0.397,1.242-1.109,2.094-2.291,2.279
	c-1.637,0.26-3.038-1.151-3.044-3.086c-0.016-5.231-0.008-10.462-0.008-15.693c0-0.28,0-0.559,0-0.813
	c-0.234-0.13-0.308,0.055-0.399,0.16c-6.674,7.701-13.345,15.403-20.015,23.108c-0.752,0.868-1.481,1.764-2.244,2.623
	c-1.6,1.806-3.287,1.668-4.668-0.358c-2.438-3.583-4.884-7.159-7.306-10.756c-0.33-0.489-0.523-0.476-0.896-0.066
	C58.87,75.468,53.73,81.058,48.594,86.651c-0.627,0.681-1.296,1.315-1.873,2.046c-1.567,1.988-4.066,1.568-4.932-0.957
	c0-0.566,0-1.131,0-1.697c0.398-1.32,1.373-2.093,2.196-2.994c3.744-4.096,7.508-8.168,11.264-12.25
	c2.399-2.608,4.795-5.219,7.198-7.825c0.554-0.601,1.116-1.193,1.926-1.299c1.142-0.148,2.029,0.328,2.732,1.371
	c2.438,3.613,4.902,7.205,7.336,10.822c0.321,0.477,0.515,0.508,0.893,0.07c6.668-7.706,13.349-15.399,20.026-23.096
	c0.071-0.082,0.137-0.17,0.235-0.294c-0.228-0.169-0.451-0.103-0.657-0.104c-4.599-0.004-9.196,0.005-13.796-0.009
	c-1.973-0.005-3.277-1.993-2.689-4.074c0.325-1.154,1.033-1.85,2.066-2.073c0.4-0.087,0.816-0.114,1.223-0.114
	c6.549-0.006,13.097-0.007,19.644,0c0.449,0.001,0.904,0.035,1.347,0.126c1.125,0.233,1.781,1.078,2.136,2.279
	C104.868,55.207,104.868,63.836,104.868,72.464z"/>
</svg>
