<?xml version="1.0" encoding="utf-8"?>
<!-- Generator: Adobe Illustrator 16.0.0, SVG Export Plug-In . SVG Version: 6.00 Build 0)  -->
<!DOCTYPE svg PUBLIC "-//W3C//DTD SVG 1.1//EN" "http://www.w3.org/Graphics/SVG/1.1/DTD/svg11.dtd">
<svg version="1.1" id="Capa_1" xmlns="http://www.w3.org/2000/svg" xmlns:xlink="http://www.w3.org/1999/xlink" x="0px" y="0px"
	 width="197.625px" height="184.769px" viewBox="0 0 197.625 184.769" enable-background="new 0 0 197.625 184.769"
	 xml:space="preserve">
<ellipse fill="#316E37" cx="98.813" cy="92.385" rx="98.813" ry="92.384"/>
<path fill-rule="evenodd" clip-rule="evenodd" fill="#FFFFFF" d="M99.362,49.096c2.377,1.39,4.396,3.118,5.896,5.334
	c2.118,3.13,2.254,6.347,0.495,9.645c-0.148,0.277-0.31,0.547-0.462,0.824c-0.012,0.021,0.005,0.054,0.015,0.172
	c1.596-0.453,3.231-0.483,4.872-0.48c1.199,0.003,2.364,0.189,3.532,0.394c0.659,0.115,1.133,0.456,1.279,1.066
	c0.908,3.835,0.838,7.554-1.582,10.981c-0.366,0.522-0.833,0.968-1.325,1.393c-0.332,0.287-0.305,0.47,0.17,0.537
	c0.06,0.008,0.12,0.007,0.179,0.017c2.396,0.373,2.604,0.618,2.909,2.83c0.311,2.239,0.213,4.439-0.459,6.61
	c-0.489,1.577-1.386,2.936-2.639,4.095c-0.145,0.133-0.43,0.227-0.362,0.446c0.083,0.271,0.399,0.188,0.63,0.228
	c0.059,0.011,0.119,0.011,0.18,0.02c1.988,0.291,2.224,0.447,2.541,2.294c0.6,3.481,0.393,6.857-1.805,9.912
	c-0.369,0.518-0.807,0.987-1.301,1.412c-0.106,0.089-0.249,0.222-0.243,0.325c0.018,0.206,0.251,0.199,0.427,0.227
	c0.33,0.048,0.662,0.097,0.992,0.155c1.271,0.224,1.593,0.518,1.84,1.658c0.547,2.525,0.569,5.05-0.23,7.526
	c-1.357,4.198-4.639,6.304-9.162,7.001c-1.366,0.21-2.739,0.229-4.104,0.153c-0.961-0.054-1.183,0.277-1.171,1.108
	c0.047,2.958,0.008,5.918,0.027,8.877c0.005,0.717-0.175,1.333-0.773,1.816c-0.428,0-0.854,0-1.281,0
	c-0.609-0.475-0.788-1.087-0.784-1.807c0.021-2.987-0.016-5.974,0.025-8.958c0.012-0.802-0.23-1.096-1.135-1.049
	c-2.164,0.115-4.326,0.072-6.435-0.496c-4.841-1.3-7.701-4.742-7.98-9.61c-0.08-1.411-0.01-2.813,0.284-4.203
	c0.345-1.625,0.704-1.935,2.492-2.153c0.289-0.035,0.701,0.084,0.815-0.228c0.1-0.268-0.301-0.38-0.482-0.553
	c-2.037-1.942-2.86-4.349-3.098-6.964c-0.129-1.435-0.032-2.869,0.268-4.288c0.347-1.639,0.714-1.958,2.477-2.171
	c0.29-0.035,0.715,0.085,0.826-0.212c0.118-0.304-0.313-0.436-0.512-0.625c-2.031-1.916-2.806-4.312-3.055-6.891
	c-0.141-1.462-0.033-2.923,0.279-4.369c0.336-1.562,0.711-1.892,2.441-2.104c0.292-0.037,0.708,0.084,0.838-0.201
	c0.144-0.317-0.296-0.44-0.491-0.624c-2.057-1.939-2.829-4.363-3.073-6.972c-0.146-1.579,0.047-3.144,0.341-4.705
	c0.177-0.944,0.74-1.392,1.736-1.566c2.698-0.471,5.381-0.476,8.199,0.14c-0.632-1.125-1.227-2.162-1.498-3.311
	c-0.793-3.365,0.247-6.283,2.578-8.876c1.355-1.507,2.938-2.774,4.76-3.782C98.628,49.096,98.995,49.096,99.362,49.096z
	 M97.291,118.838c0.002,0,0.003,0,0.004,0c0-0.451,0.018-0.902-0.004-1.352c-0.194-3.995-2.575-6.777-6.515-7.557
	c-1.591-0.313-3.199-0.332-4.819-0.122c-0.679,0.088-0.945,0.354-1.003,0.96c-0.117,1.238-0.194,2.47,0.01,3.702
	c0.478,2.882,1.973,5.05,5.037,6.119c2.139,0.746,4.358,0.728,6.589,0.642c0.485-0.017,0.712-0.253,0.704-0.703
	C97.285,119.966,97.291,119.402,97.291,118.838z M97.327,104.344c0.021-0.489-0.064-1.383-0.226-2.274
	c-0.631-3.482-2.811-5.685-6.378-6.358c-1.59-0.299-3.198-0.322-4.816-0.102c-0.644,0.087-0.889,0.354-0.947,0.915
	c-0.131,1.264-0.153,2.52-0.006,3.786c0.349,2.97,2.427,5.347,5.513,6.219c1.409,0.398,2.852,0.573,4.326,0.535
	C97.671,106.989,97.26,107.301,97.327,104.344z M97.312,90.825c0.013-1.176-0.022-2.044-0.205-2.907
	c-0.471-2.23-1.386-4.219-3.615-5.427c-2.465-1.336-5.148-1.415-7.887-1.033c-0.554,0.077-0.592,0.49-0.642,0.893
	c-0.155,1.261-0.159,2.52-0.005,3.785c0.366,3.012,2.472,5.358,5.627,6.219c1.385,0.377,2.802,0.538,4.24,0.502
	C97.669,92.789,97.26,93.099,97.312,90.825z M102.643,107.054c0-0.002,0-0.005,0-0.009c0.363,0,0.731,0.021,1.096-0.003
	c2.281-0.144,4.461-0.574,6.27-1.997c2.225-1.749,3.509-6.472,2.466-9.002c-0.14-0.338-0.407-0.36-0.712-0.411
	c-1.61-0.267-3.221-0.223-4.813,0.059c-3.276,0.582-5.354,2.388-6.243,5.36c-0.393,1.309-0.586,2.658-0.521,4.004
	c0.117,2.406,0.101,1.918,2.188,1.998C102.461,107.059,102.553,107.054,102.643,107.054z M102.872,121.259
	c0.726,0.065,1.662-0.044,2.592-0.191c2.531-0.396,4.712-1.344,6.025-3.519c1.378-2.279,1.393-4.727,0.999-7.219
	c-0.066-0.401-0.383-0.438-0.729-0.493c-1.611-0.262-3.221-0.223-4.814,0.061c-3.275,0.582-5.354,2.392-6.238,5.365
	c-0.398,1.335-0.601,2.713-0.521,4.085c0.129,2.264,0.095,1.838,2.096,1.912C102.402,121.263,102.526,121.259,102.872,121.259z
	 M104.238,59.61c-0.013-0.094-0.026-0.318-0.061-0.541c-0.451-3.073-2.496-5.167-5.013-6.977c-0.362-0.262-0.598-0.105-0.876,0.095
	c-1.014,0.728-1.953,1.531-2.752,2.458c-1.573,1.827-2.569,3.826-2.013,6.24c0.595,2.582,2.405,4.423,4.382,6.177
	c0.641,0.568,1.127,0.626,1.726-0.015c0.396-0.423,0.901-0.756,1.315-1.167C102.706,64.141,104.093,62.225,104.238,59.61z
	 M97.317,76.232c0.021-0.695-0.027-1.592-0.212-2.48c-0.587-2.836-2.032-5.043-5.138-6.056c-2.006-0.655-4.067-0.593-6.138-0.425
	c-0.584,0.047-0.813,0.395-0.868,0.915c-0.125,1.207-0.19,2.408-0.013,3.617c0.446,2.999,1.994,5.212,5.173,6.292
	c1.57,0.533,3.219,0.666,4.857,0.653c2.339-0.019,2.338-0.082,2.338-2.223C97.317,76.496,97.317,76.468,97.317,76.232z
	 M102.916,78.688c0-0.018,0-0.036,0-0.054c0.575,0,1.162,0.048,1.734-0.009c2.998-0.299,5.574-1.3,7.025-3.93
	c1.137-2.059,1.149-4.277,0.899-6.524c-0.08-0.702-0.492-0.88-1.139-0.934c-1.279-0.102-2.56-0.142-3.825,0.017
	c-3.023,0.379-5.32,1.698-6.519,4.404c-0.731,1.648-0.911,3.384-0.917,5.132c-0.006,1.882,0.038,1.882,2.098,1.897
	C102.488,78.689,102.7,78.688,102.916,78.688z M102.929,92.89c0-0.017,0-0.034,0-0.05c0.579,0,1.161,0.029,1.736-0.006
	c3.699-0.222,6.416-2.034,7.497-5.041c0.64-1.77,0.625-3.592,0.406-5.43c-0.074-0.643-0.432-0.869-1.058-0.912
	c-1.278-0.088-2.563-0.144-3.831,0.004c-3.023,0.352-5.343,1.646-6.56,4.345c-0.779,1.725-0.971,3.543-0.939,5.378
	c0.03,1.68,0.081,1.68,1.927,1.711C102.379,92.895,102.655,92.89,102.929,92.89z M96.581,81.314
	c0.694,0.836,1.396,1.537,1.884,2.376c0.175,0.302,0.391,0.364,0.593,0.033c0.502-0.825,1.041-1.624,1.854-2.404
	C99.396,81.041,98.043,80.984,96.581,81.314z M100.875,95.551c-1.475-0.345-2.824-0.347-4.277-0.013
	c0.696,0.834,1.404,1.561,1.913,2.421c0.17,0.29,0.386,0.231,0.541-0.023C99.551,97.11,100.094,96.312,100.875,95.551z
	 M96.578,109.732c0.72,0.835,1.406,1.544,1.897,2.385c0.195,0.333,0.415,0.301,0.592-0.004c0.479-0.833,1.05-1.609,1.81-2.363
	C99.404,109.412,98.066,109.421,96.578,109.732z"/>
</svg>
