<?xml version="1.0" encoding="utf-8"?>
<!-- Generator: Adobe Illustrator 16.0.0, SVG Export Plug-In . SVG Version: 6.00 Build 0)  -->
<!DOCTYPE svg PUBLIC "-//W3C//DTD SVG 1.1//EN" "http://www.w3.org/Graphics/SVG/1.1/DTD/svg11.dtd">
<svg version="1.1" id="Capa_1" xmlns="http://www.w3.org/2000/svg" xmlns:xlink="http://www.w3.org/1999/xlink" x="0px" y="0px"
	 width="137.626px" height="137.625px" viewBox="0 0 137.626 137.625" enable-background="new 0 0 137.626 137.625"
	 xml:space="preserve">
<circle fill="#316E37" cx="68.813" cy="68.813" r="68.813"/>
<g>
	<path fill-rule="evenodd" clip-rule="evenodd" fill="#FFFFFF" d="M36.792,68.593c0-1.812,0-3.624,0-5.438
		c0.143-0.996,0.233-2.004,0.436-2.986c2.64-12.731,9.98-21.011,21.958-24.872c1.785-0.575,3.641-0.807,5.487-1.063
		c1.748,0,3.496,0,5.243,0c1,0.152,2.012,0.242,2.997,0.467c12.203,2.785,20.159,10.38,23.858,22.76
		c0.564,1.892,0.803,3.855,1.025,5.817c0,1.729,0,3.46,0,5.19c-0.143,1.036-0.225,2.088-0.438,3.109
		c-2.642,12.726-9.974,21.013-21.956,24.87c-1.824,0.588-3.716,0.831-5.606,1.064c-1.668,0-3.335,0-5.003,0
		c-1.001-0.148-2.014-0.235-2.999-0.455C49.549,94.33,41.57,86.734,37.831,74.346C37.267,72.477,37.038,70.531,36.792,68.593z
		 M92.981,65.873C92.849,51.09,81.626,39.272,67.31,39.259c-14.201-0.013-25.65,11.687-25.673,26.583
		C41.615,80.658,52.989,92.496,67.31,92.488C81.621,92.479,92.848,80.661,92.981,65.873z"/>
	<path fill-rule="evenodd" clip-rule="evenodd" fill="#FFFFFF" d="M64.867,71.127c0-2.657-0.008-5.314,0.004-7.972
		c0.005-1.296,0.901-2.32,2.135-2.489c1.144-0.157,2.263,0.604,2.623,1.774c0.087,0.282,0.094,0.567,0.094,0.855
		c0,5.232,0.004,10.464-0.001,15.696c0,1.557-0.987,2.626-2.405,2.634c-1.452,0.008-2.445-1.06-2.449-2.65
		C64.862,76.359,64.866,73.742,64.867,71.127z"/>
	<path fill-rule="evenodd" clip-rule="evenodd" fill="#FFFFFF" d="M70.556,54.403c-0.008,1.874-1.456,3.359-3.27,3.355
		c-1.834-0.003-3.262-1.513-3.253-3.436c0.01-1.885,1.44-3.349,3.271-3.344C69.158,50.983,70.566,52.465,70.556,54.403z"/>
</g>
</svg>
